<?xml version="1.0" standalone="no"?><!DOCTYPE svg PUBLIC "-//W3C//DTD SVG 1.1//EN" "http://www.w3.org/Graphics/SVG/1.1/DTD/svg11.dtd"><svg t="1723514132095" class="icon" viewBox="0 0 1024 1024" version="1.1" xmlns="http://www.w3.org/2000/svg" p-id="824" xmlns:xlink="http://www.w3.org/1999/xlink" width="200" height="200"><path d="M512 25.6C243.328 25.6 25.6 243.328 25.6 512s217.728 486.4 486.4 486.4c268.672 0 486.4-217.728 486.4-486.4S780.672 25.6 512 25.6z m202.496 576.128l-184.32 184.32a25.344 25.344 0 0 1-36.224 0l-184.32-184.32a25.6 25.6 0 0 1 36.224-36.224l140.672 140.672V256a25.6 25.6 0 1 1 51.2 0v450.176L678.4 565.504a25.6 25.6 0 0 1 36.224 36.224z" p-id="825" fill="#ffffff"></path></svg>